<?xml version="1.0" standalone="no"?><!DOCTYPE svg PUBLIC "-//W3C//DTD SVG 1.1//EN" "http://www.w3.org/Graphics/SVG/1.1/DTD/svg11.dtd"><svg t="1774516330677" class="icon" viewBox="0 0 1024 1024" version="1.1" xmlns="http://www.w3.org/2000/svg" p-id="10274" width="44" height="44" xmlns:xlink="http://www.w3.org/1999/xlink"><path d="M716.8 648.533333h68.266667v68.266667h-136.533334v-136.533333h68.266667v68.266666z m-263.168 102.4A238.933333 238.933333 0 0 1 716.8 446.122667V238.933333H204.8v512h248.832z m32.938667 68.266667H170.666667a34.133333 34.133333 0 0 1-34.133334-34.133333V204.8a34.133333 34.133333 0 0 1 34.133334-34.133333h580.266666a34.133333 34.133333 0 0 1 34.133334 34.133333v261.9392A238.933333 238.933333 0 1 1 486.570667 819.2zM682.666667 853.333333a170.666667 170.666667 0 1 0 0-341.333333 170.666667 170.666667 0 0 0 0 341.333333zM307.2 341.333333h307.2v68.266667H307.2v-68.266667z m0 170.666667h102.4v68.266667H307.2v-68.266667z" fill="#5756B3" p-id="10275"></path></svg>