<?xml version="1.0" standalone="no"?><!DOCTYPE svg PUBLIC "-//W3C//DTD SVG 1.1//EN" "http://www.w3.org/Graphics/SVG/1.1/DTD/svg11.dtd"><svg t="1774516637018" class="icon" viewBox="0 0 1024 1024" version="1.1" xmlns="http://www.w3.org/2000/svg" p-id="22057" width="44" height="44" xmlns:xlink="http://www.w3.org/1999/xlink"><path d="M707.84 981.333333H318.506667A120.96 120.96 0 0 1 213.333333 921.173333L19.413333 583.893333a121.173333 121.173333 0 0 1 0-120.32L213.333333 126.293333a120.96 120.96 0 0 1 105.173334-60.16h389.333333a120.32 120.32 0 0 1 104.32 60.16l194.773333 337.28a121.173333 121.173333 0 0 1 0 120.32l-194.773333 337.28A120.32 120.32 0 0 1 707.84 981.333333zM318.506667 128a59.093333 59.093333 0 0 0-50.986667 29.44L72.746667 494.293333a59.093333 59.093333 0 0 0 0 58.88l194.773333 337.28a58.88 58.88 0 0 0 50.986667 29.44h389.333333a59.52 59.52 0 0 0 51.2-29.44l194.56-337.28a59.093333 59.093333 0 0 0 0-58.88L759.04 157.013333A59.52 59.52 0 0 0 707.84 128z m0 0" p-id="22058" fill="#5756B3"></path><path d="M513.28 726.613333a192 192 0 1 1 192-192 192 192 0 0 1-192 192z m0-320a128 128 0 1 0 128 128 128 128 0 0 0-128-128z m0 0" p-id="22059" fill="#5756B3"></path></svg>