<?xml version="1.0" standalone="no"?><!DOCTYPE svg PUBLIC "-//W3C//DTD SVG 1.1//EN" "http://www.w3.org/Graphics/SVG/1.1/DTD/svg11.dtd"><svg t="1774517210151" class="icon" viewBox="0 0 1024 1024" version="1.1" xmlns="http://www.w3.org/2000/svg" p-id="6867" width="50" height="50" xmlns:xlink="http://www.w3.org/1999/xlink"><path d="M758.175 917.735c-65.167 0-118.043-52.878-118.043-118.043 0-4.175 0.234-7.886 0.462-11.363h-197.59c-2.783 1.392-5.799 2.09-9.045 2.09h-62.154c-7.651 58.674-57.515 102.739-117.116 102.739-59.369 0-109.463-44.063-117.116-102.739h-61.69a21.28 21.28 0 0 1-21.337-21.337V470.378c0-3.942 1.159-7.886 3.011-11.13l102.739-167.907c24.583-38.96 60.995-58.674 108.539-58.674h144.018c4.405-71.43 63.315-127.09 134.971-127.09h285.025c74.677 0 135.205 60.759 135.205 135.205v440.869c0 53.805-39.89 99.026-92.996 105.985 0.462 3.942 0.698 8.117 0.698 12.29 0.462 64.934-52.412 117.812-117.579 117.812z m0-193.419c-41.51 0-75.37 33.861-75.37 75.37s33.861 75.37 75.37 75.37 75.37-33.861 75.37-75.37-33.628-75.37-75.37-75.37z m-503.483-24.582c-41.51 0-75.37 33.861-75.37 75.603 0 41.51 33.861 75.37 75.37 75.37s75.37-33.861 75.37-75.37c0-41.744-33.861-75.603-75.37-75.603z m0-42.441c54.268 0 102.275 38.032 114.797 90.677h43.134l0.234-472.874H269.072c-32.701 0-55.658 12.29-72.356 38.727l-99.492 162.57v271.569h42.441c12.755-52.645 60.759-90.677 115.029-90.677z m398.658 88.593c20.409-39.66 60.528-64.006 105.056-64.006s84.649 24.583 105.056 64.006c34.784-0.698 62.849-29.221 62.849-64.241V240.776c0-51.023-41.51-92.765-92.765-92.765H548.293c-51.023 0-92.765 41.51-92.765 92.765v505.106h197.824zM174.218 495.883c-11.828 0-21.337-9.507-21.337-21.337s9.507-21.337 21.337-21.337h101.345V351.864c0-11.828 9.507-21.337 21.337-21.337s21.337 9.507 21.337 21.337v122.681a21.28 21.28 0 0 1-21.337 21.337H174.219z" fill="#5756B3" p-id="6868"></path></svg>