<?xml version="1.0" standalone="no"?><!DOCTYPE svg PUBLIC "-//W3C//DTD SVG 1.1//EN" "http://www.w3.org/Graphics/SVG/1.1/DTD/svg11.dtd"><svg t="1774516048428" class="icon" viewBox="0 0 1024 1024" version="1.1" xmlns="http://www.w3.org/2000/svg" p-id="6356" width="28" height="28" xmlns:xlink="http://www.w3.org/1999/xlink"><path d="M825.1 727.6H338.6c-28 0-55-9.9-76.1-28-21.8-18.6-34.8-43.7-36.7-70.6v-0.1l-26.1-405.1-49.3-24.1c-12.4-6.1-17.6-21-11.5-33.4 6.1-12.4 21-17.6 33.4-11.5l52.7 25.7c14.7 7.1 24 21.1 24.4 36.9l26.3 408.2c2 28.7 30.3 52 63 52h486.5c13.8 0 25 11.2 25 25s-11.3 25-25.1 25z m-621.8-502z" p-id="6357" fill="#e6e6e6"></path><path d="M385.4 614.7h-1.1c-13.8 0-25-11.2-25-25s11.2-25 25-25h0.4l345.9-25.3c18.9-1.6 33.8-14.4 35.3-30.4 0.1-0.9 0.2-1.9 0.4-2.8l31.4-166.4c0.1-1.6 0.3-3.2 0.7-4.7 1.8-7.9-1-16.9-7.2-23.6-7.4-7.9-18.2-12.4-29.5-12.4H356.5c-13.8 0-25-11.2-25-25s11.2-25 25-25h405.2c25 0 49.1 10.3 65.9 28.1 17.3 18.4 24.7 43.4 19.9 67.2-0.1 1.1-0.2 2.2-0.4 3.3l-31.5 166.8c-4.3 39.7-38.2 71-81 74.6h-0.3l-346.7 25.3c-0.7 0.3-1.5 0.3-2.2 0.3z m430.3-100.9z m31.5-167.6z m-49.6-4.1zM328.3 814.1c0.7 0 1.3 0.6 1.3 1.3 0 0.7-0.6 1.3-1.3 1.3-0.7 0-1.3-0.6-1.3-1.3 0-0.8 0.6-1.3 1.3-1.3m0-50c-28.3 0-51.3 23-51.3 51.3 0 28.3 23 51.3 51.3 51.3s51.3-23 51.3-51.3c0-28.4-23-51.3-51.3-51.3zM738.6 814.1c0.7 0 1.3 0.6 1.3 1.3 0 0.7-0.6 1.3-1.3 1.3-0.7 0-1.3-0.6-1.3-1.3 0-0.8 0.6-1.3 1.3-1.3m0-50c-28.3 0-51.3 23-51.3 51.3 0 28.3 23 51.3 51.3 51.3 28.3 0 51.3-23 51.3-51.3 0-28.4-22.9-51.3-51.3-51.3z" p-id="6358" fill="#e6e6e6"></path></svg>