<?xml version="1.0" standalone="no"?><!DOCTYPE svg PUBLIC "-//W3C//DTD SVG 1.1//EN" "http://www.w3.org/Graphics/SVG/1.1/DTD/svg11.dtd"><svg t="1774515968757" class="icon" viewBox="0 0 1024 1024" version="1.1" xmlns="http://www.w3.org/2000/svg" p-id="3802" id="mx_n_1774515968758" width="28" height="28" xmlns:xlink="http://www.w3.org/1999/xlink"><path d="M1001.937455 1007.802182c0 1.396364-1.163636 2.606545-2.606546 2.606545H16.896a2.606545 2.606545 0 0 1-2.606545-2.606545V375.063273c0-1.396364 0.930909-3.258182 2.094545-4.096L506.042182 16.570182a3.816727 3.816727 0 0 1 4.189091 0L999.796364 370.967273a5.725091 5.725091 0 0 1 2.094545 4.096v632.738909zM80.151273 941.986909c0 1.396364 1.163636 2.56 2.56 2.56h850.757818c1.442909 0 2.606545-1.163636 2.606545-2.56V408.669091c0-1.396364-0.930909-3.258182-2.094545-4.096l-423.796364-306.734546a3.816727 3.816727 0 0 0-4.189091 0l-423.749818 306.734546a5.725091 5.725091 0 0 0-2.094545 4.096v533.317818z m589.125818-185.437091c0 1.396364-1.163636 2.606545-2.606546 2.606546H349.556364a2.606545 2.606545 0 0 1-2.606546-2.606546v-60.648727c0-1.396364 1.163636-2.606545 2.606546-2.606546h317.114181c1.396364 0 2.606545 1.163636 2.606546 2.606546v60.648727z" fill="#e6e6e6" p-id="3803"></path></svg>