<?xml version="1.0" standalone="no"?><!DOCTYPE svg PUBLIC "-//W3C//DTD SVG 1.1//EN" "http://www.w3.org/Graphics/SVG/1.1/DTD/svg11.dtd"><svg t="1774516074892" class="icon" viewBox="0 0 1024 1024" version="1.1" xmlns="http://www.w3.org/2000/svg" p-id="7601" width="28" height="28" xmlns:xlink="http://www.w3.org/1999/xlink"><path d="M361.37472 682.14272h308.1728c157.34784 0 228.57728 119.83872 243.50208 275.4304l36.41344-40.1152H81.46432l36.41344 40.1152c14.9248-155.62752 86.05184-275.4304 243.49696-275.4304z m-279.9104 308.55168h868.00384c21.58592 0 38.4768-18.6112 36.41344-40.12032-18.5088-193.07008-121.20576-341.66272-316.32896-341.66272h-308.1728c-195.22048 0-297.81504 148.57728-316.32384 341.66272-2.06848 21.50912 14.81728 40.12032 36.40832 40.12032z m688.0768-675.13856c0-144.91648-117.36576-262.37952-262.1184-262.37952-144.77824 0-262.144 117.46304-262.144 262.37952 0 144.91136 117.36576 262.39488 262.144 262.39488 144.75264 0 262.1184-117.48352 262.1184-262.39488z m-451.11296 0c0-104.46848 84.61312-189.13792 188.98944-189.13792 104.35072 0 188.95872 84.67456 188.95872 189.13792s-84.608 189.1584-188.95872 189.1584c-104.3712 0-188.98944-84.68992-188.98944-189.1584z" fill="#e6e6e6" p-id="7602"></path></svg>